# xmcd CD database file
# Copyright (C) 1997 Ti Kan
# 
# Track frame offsets:
#     150
#     12992
#     26721
#     39238
#     53320
#     66100
#     80047
#     93629
#     108336
#     122540
#     136750
#     150374
#     164126
#     176783
#     190303
#     202787
#     216997
#     232529
#     246426
#     261213
# 
# Disc length: 3668 seconds
# 
# Revision: 1
# Processed by: cddbd v1.4b41PL1 Copyright (c) Steve Scherf et al.
# Submitted via: DiscPlay 4.0.4
# 
DISCID=080e5214
DTITLE=Wingy Manone - Will Bradley - Wingy Manone and His Cats
DYEAR=1900
DGENRE=
TTITLE0=Jingle Bells Boogie (WB)
TTITLE1=Cryin' The Boogie Blues (WB)
TTITLE2=Lightnin' Boogie (WB)
TTITLE3=Sugar Hill Boogie Woogie (WB)
TTITLE4=O' Sole Mio
TTITLE5=The Glory Day
TTITLE6=Bread and Gravy
TTITLE7=That's A Gasser
TTITLE8=Boogie Man
TTITLE9=Georga Gal
TTITLE10=Boogie Man
TTITLE11=Where Can I Find A Cherry?
TTITLE12=Jingle Bells Boogie (WB)
TTITLE13=Sugar Hill Boogie Woogie (WB)
TTITLE14=O Sole Mio
TTITLE15=Shake The Blues Away
TTITLE16=That Glory Day
TTITLE17=That's A Gasser
TTITLE18=Georgia Gal
TTITLE19=Where Can I Find A Cherry?
EXTD=
EXTT0=
EXTT1=
EXTT2=
EXTT3=
EXTT4=
EXTT5=
EXTT6=
EXTT7=
EXTT8=
EXTT9=
EXTT10=
EXTT11=
EXTT12=
EXTT13=
EXTT14=
EXTT15=
EXTT16=
EXTT17=
EXTT18=
EXTT19=
PLAYORDER=
